<svg version="1.2" xmlns="http://www.w3.org/2000/svg" viewBox="0 0 40 44" width="40" height="44">
	<title>document-svg</title>
	<style>
		.s0 { fill: #7b61ff } 
	</style>
	<path id="Layer" fill-rule="evenodd" class="s0" d="m28.7 1.2c6.5 0 10.1 3.7 10.1 10v21.6c0 6.4-3.6 10-10.1 10h-17.4c-6.4 0-10.1-3.6-10.1-10v-21.6c0-6.3 3.7-10 10.1-10zm-16.9 28.6c-0.7-0.1-1.3 0.2-1.6 0.8-0.3 0.5-0.3 1.2 0 1.7 0.3 0.5 0.9 0.8 1.6 0.8h16.3c0.8-0.1 1.5-0.8 1.5-1.7 0-0.8-0.7-1.5-1.5-1.6zm16.3-9.5h-16.3c-0.9 0-1.6 0.7-1.6 1.6 0 0.9 0.7 1.6 1.6 1.6h16.3c0.9 0 1.7-0.7 1.7-1.6 0-0.9-0.8-1.6-1.7-1.6zm-10.1-9.4h-6.2c-0.9 0-1.6 0.7-1.6 1.6 0 0.9 0.7 1.6 1.6 1.6h6.2c0.9 0 1.7-0.7 1.7-1.6 0-0.9-0.8-1.6-1.7-1.6z"/>
</svg>