<svg width="20" height="18" viewBox="0 0 20 18" fill="none" xmlns="http://www.w3.org/2000/svg">
<path d="M6.66673 13.1667L10.0001 16.5M10.0001 16.5L13.3334 13.1667M10.0001 16.5V9M17.4001 14.075C18.1246 13.5655 18.6679 12.8385 18.9511 11.9993C19.2344 11.1601 19.2429 10.2525 18.9754 9.40819C18.7079 8.56386 18.1783 7.82674 17.4635 7.3038C16.7486 6.78086 15.8858 6.49931 15.0001 6.5H13.9501C13.6994 5.52323 13.2305 4.61604 12.5785 3.84673C11.9265 3.07743 11.1085 2.46605 10.1861 2.05863C9.26363 1.65121 8.26077 1.45836 7.25301 1.4946C6.24524 1.53084 5.25883 1.79523 4.36803 2.26785C3.47723 2.74048 2.70525 3.40904 2.11022 4.22319C1.51519 5.03734 1.11261 5.97587 0.932784 6.96812C0.752958 7.96038 0.800575 8.9805 1.07205 9.95168C1.34352 10.9229 1.83178 11.8198 2.50007 12.575" stroke="#667085" stroke-width="1.66667" stroke-linecap="round" stroke-linejoin="round"/>
</svg>
